# xmcd
#
# Track frame offsets:
# 150
# 5479
# 32304
# 59914
# 84550
#
# Disc length: 1559 seconds
#
#
# Revision: 0
# Processed by: cddbd v1.5.2PL0 Copyright (c) Steve Scherf et al.
# Submitted via: FreeRIP 2.951 
#
DISCID=36061505
DTITLE=Ole Lund Kirkegaard - Anton og Arnold i ville vesten
DYEAR=1988
DGENRE=Lydbok
TTITLE0=Anton og Arnold
TTITLE1=Fredpiper og ordentlig tobakk
TTITLE2=Rødhuder og blekansikter
TTITLE3=Vi lager togavsporing
TTITLE4=Den mystiske pakken
EXTD=Anders Baasmo Christiansen leser
EXTT0=
EXTT1=
EXTT2=
EXTT3=
EXTT4=
PLAYORDER=
